<?xml version="1.0" standalone="no"?>
<!DOCTYPE svg PUBLIC "-//W3C//DTD SVG 1.1//EN" "http://www.w3.org/Graphics/SVG/1.1/DTD/svg11.dtd">
<svg version="1.1" xmlns="http://www.w3.org/2000/svg" viewBox="0 0 180 175" width="180" height="175" filter="invert(93%) hue-rotate(180deg)"><!-- svg-source:excalidraw --><metadata></metadata><defs><style class="style-fonts">
      </style></defs><g stroke-linecap="round" transform="translate(10 10) rotate(0 80 77.5)"><path d="M89.95 0.97 C100.13 1.18, 110.78 6.16, 119.94 11.54 C129.11 16.92, 138.39 24.81, 144.96 33.26 C151.53 41.71, 157.21 51.96, 159.39 62.23 C161.56 72.51, 160.55 84.74, 158.02 94.89 C155.48 105.04, 150.6 114.69, 144.18 123.14 C137.77 131.58, 129 140.32, 119.5 145.56 C110 150.81, 97.93 153.63, 87.19 154.58 C76.46 155.54, 65.22 154.72, 55.1 151.3 C44.99 147.88, 34.54 141.18, 26.49 134.06 C18.44 126.94, 11.13 118.3, 6.81 108.57 C2.48 98.85, 0.61 86.32, 0.56 75.7 C0.51 65.09, 2.07 54.25, 6.52 44.89 C10.97 35.52, 18.82 26.29, 27.25 19.48 C35.68 12.68, 46.46 7.27, 57.1 4.06 C67.75 0.85, 84.96 0.45, 91.13 0.21 C97.3 -0.03, 94.33 1.22, 94.1 2.62 M71.14 -0.67 C81.38 -2.88, 93.22 0.81, 103.48 4.09 C113.75 7.37, 124.7 12.27, 132.72 18.99 C140.75 25.7, 146.89 35.04, 151.63 44.37 C156.37 53.71, 160.86 64.66, 161.18 75.01 C161.5 85.37, 158.13 96.86, 153.55 106.49 C148.96 116.11, 141.35 125.55, 133.68 132.76 C126 139.97, 117.66 145.91, 107.49 149.73 C97.33 153.55, 83.57 156.4, 72.7 155.67 C61.84 154.93, 51.59 150.49, 42.3 145.32 C33.02 140.15, 23.61 133.01, 16.98 124.66 C10.36 116.32, 5.29 105.66, 2.55 95.24 C-0.2 84.83, -1.41 72.57, 0.52 62.17 C2.45 51.78, 7.62 41.61, 14.14 32.87 C20.66 24.13, 30.33 15.07, 39.67 9.75 C49.01 4.42, 65.17 2.05, 70.19 0.91 C75.2 -0.22, 69.42 1.81, 69.75 2.93" stroke="#1e1e1e" stroke-width="2" fill="none"></path></g></svg>